<svg xmlns="http://www.w3.org/2000/svg" xmlns:xlink="http://www.w3.org/1999/xlink" viewBox="0 0 751.64 191.69"><defs><style>.cls-1{fill:#e5e1ee;}.cls-2{fill:url(#linear-gradient);}.cls-3{fill:url(#linear-gradient-2);}</style><linearGradient id="linear-gradient" x1="160.29" y1="177.12" x2="173.59" y2="163.82" gradientUnits="userSpaceOnUse"><stop offset="0" stop-color="#42bfdd"/><stop offset="1" stop-color="#5465ff"/></linearGradient><linearGradient id="linear-gradient-2" x1="202.64" y1="96.3" x2="39.63" y2="96.3" xlink:href="#linear-gradient"/></defs><g id="light"><path class="cls-1" d="M224.88,57.63l-2.7,20.63h-12.1L222.5,1.13h16.81l12.9,77.13H239.78l-3-20.63Zm10.46-10.94c-1.76-13.1-3.45-25.54-4.33-34.26h-.44c-.33,6.36-2.65,22.87-4.18,34.26Z"/><path class="cls-1" d="M281.35,1.13h11.9V67.62h19.4l-1,10.64H281.35Z"/><path class="cls-1" d="M340.93,1.13h15.84c13.35,0,18.48,6.25,18.48,17.56v2.83c0,11-3.79,14.1-7.16,15.5,3.44,1.38,8.59,4.25,8.59,15.48v5.84c0,13-5.44,19.92-18.86,19.92H340.93Zm14.5,31.4c6.65,0,8.64-2.05,8.64-9.7v-3c0-6.4-2.28-8.87-8-8.87h-3.68V32.53Zm-3,36h4c6.87,0,8.58-3,8.58-10.5V52.9c0-7.52-1.9-10.75-9.48-10.75h-3.07Z"/><path class="cls-1" d="M419.68,43.77V78.26H407.79V1.13h16.48c11.73,0,18.66,4.7,18.66,18.58v2.94c0,11.85-4.86,14.87-7.85,16.09,4.5,2.11,7.07,5.35,7.07,15.82,0,6.49-.11,19,.71,23.7H431.37c-1-4.66-.81-17.33-.81-22.93,0-9.41-1.21-11.56-8.11-11.56Zm0-9.82h2.73c6.3,0,8.61-2.38,8.61-10.76V20.54c0-6-1.23-9.59-8-9.59h-3.37Z"/><path class="cls-1" d="M504,43H487v24.3h19.54l-1.51,10.94H475.12V1.13h29.79v11H487V32.09h17Z"/><path class="cls-1" d="M570.21,55.2v3c0,8.83-1.47,21.19-17.78,21.19-14.28,0-17.31-8.93-17.31-20.7V19.8c0-11.91,5.4-19.8,17.52-19.8,14.46,0,17.22,9.59,17.22,20.28v3.45H557.94V18.88c0-5.12-1.2-8-5.33-8s-5.38,2.8-5.38,8.08V59.71c0,5,1,8.94,5.52,8.94,4.29,0,5.44-3.4,5.44-9.14V55.2Z"/><path class="cls-1" d="M600.62,1.13h11.89V31.58h12.81V1.13h11.89V78.26H625.32V42.52H612.51V78.26H600.62Z"/><path class="cls-1" d="M678.35,12.17H666v-11H702.7v11H690.24V78.26H678.35Z"/><path class="cls-1" d="M306,161.68c0-13.11.14-29.43.37-38.27h-.12c-1.77,13.39-6,44.63-9.37,67H285.65c-2.49-20-6.8-53-8.56-67.07h-.23c.23,9,.59,26.44.59,39.71v27.36H266.68V113.24H284.4c3,19.61,6.09,41.58,7.13,52.39h.12c1.25-10.94,5.43-33.89,8.52-52.39H317.3v77.14H306Z"/><path class="cls-1" d="M351.42,169.74l-2.7,20.64h-12.1l12.43-77.14h16.8l12.9,77.14H366.32l-3-20.64Zm10.46-10.94c-1.76-13.1-3.45-25.53-4.33-34.25h-.43c-.34,6.35-2.65,22.87-4.19,34.25Z"/><path class="cls-1" d="M410.32,155.88v34.5h-11.9V113.24H414.9c11.74,0,18.67,4.7,18.67,18.59v2.94c0,11.85-4.87,14.86-7.86,16.09,4.5,2.11,7.07,5.35,7.07,15.82,0,6.49-.11,19,.71,23.7H422c-1-4.67-.81-17.33-.81-22.94,0-9.4-1.21-11.56-8.11-11.56Zm0-9.82h2.73c6.29,0,8.61-2.37,8.61-10.76v-2.64c0-6-1.24-9.6-8-9.6h-3.36Z"/><path class="cls-1" d="M456.39,113.24h11.69v34.84h.12c2.95-7.62,9.55-24.22,13.8-34.84h13.25l-14.05,30,14.88,47.17H483.13l-10.08-34.74-5,10.39v24.35H456.39Z"/><path class="cls-1" d="M543,155.14H526v24.3h19.54l-1.51,10.94H514.13V113.24h29.79v11H526V144.2h17Z"/><path class="cls-1" d="M575,124.28H562.61v-11h36.73v11H586.89v66.1H575Z"/><path class="cls-1" d="M630.51,113.24v77.14h-11.9V113.24Z"/><path class="cls-1" d="M655,190.38V113.24h13.78c3.08,10.89,12.28,49,13.1,53.05H682c-.55-9.49-.58-20.34-.58-33v-20h11v77.14H679.14c-2.44-9.22-12.7-51.52-13.48-54.76h-.11c.56,9.34.52,19.79.52,33.66v21.1Z"/><path class="cls-1" d="M751.64,190.38h-9.28a47.11,47.11,0,0,1-.65-5.8c-2.14,5.13-6.61,6.92-11.59,6.92-11.35,0-15-8.21-15-21.29V134c0-12.6,4.91-21.87,18.31-21.87,16.2,0,17.91,11.9,17.91,20.18v2.51H739.44v-3.09c0-4.07-.6-8.77-6-8.77-4.33,0-6.18,3-6.18,9.16v39.46c0,6.17,1.78,9.4,6.08,9.4,5.16,0,6.42-4.32,6.42-12.25V157.46H733V147.24h18.66Z"/><path class="cls-2" d="M180.27,185.46,148.42,182c-.59-.07-.61-1.44,0-1.54,23.51-4.11,10.87-28.2,10-29.81Z"/><path class="cls-3" d="M238,191.68l-57.69-6.22L158.4,150.68l0-.06v0L115.52,82.45l-59.11,94c-3.61,5.75-8.39,9.25-13.48,9.89l-41.5,5.21c-1.22.15-1.91-2.21-1-3.6L91.12,43.64l25.75-41c1.47-2.34,3.88-2.34,5.35,0l116.7,185.65C239.73,189.61,239.1,191.8,238,191.68Z"/></g></svg>