<svg id="Layer_1" data-name="Layer 1" xmlns="http://www.w3.org/2000/svg" xmlns:xlink="http://www.w3.org/1999/xlink" viewBox="0 0 180 60"><defs><style>.cls-1{fill:#0f084b;}.cls-2{fill:url(#linear-gradient);}.cls-3{fill:url(#linear-gradient-2);}</style><linearGradient id="linear-gradient" x1="38.96" y1="49.25" x2="42.11" y2="46.1" gradientUnits="userSpaceOnUse"><stop offset="0" stop-color="#42bfdd"/><stop offset="1" stop-color="#5465ff"/></linearGradient><linearGradient id="linear-gradient-2" x1="48.99" y1="30.11" x2="10.39" y2="30.11" xlink:href="#linear-gradient"/></defs><path class="cls-1" d="M54.26,21l-.64,4.89H50.75L53.69,7.57h4l3.06,18.27H57.78L57.07,21Zm2.47-2.59c-.42-3.1-.81-6-1-8.11H55.6c-.07,1.5-.62,5.41-1,8.11Z"/><path class="cls-1" d="M67.63,7.57h2.82V23.32H75l-.24,2.52H67.63Z"/><path class="cls-1" d="M81.74,7.57h3.75c3.16,0,4.38,1.48,4.38,4.16v.67c0,2.59-.9,3.34-1.7,3.67.82.33,2,1,2,3.66v1.39c0,3.09-1.28,4.72-4.46,4.72h-4ZM85.17,15c1.58,0,2-.49,2-2.3V12c0-1.52-.54-2.1-1.89-2.1h-.87V15Zm-.71,8.52h.94c1.63,0,2-.71,2-2.48V19.83c0-1.78-.45-2.54-2.24-2.54h-.73Z"/><path class="cls-1" d="M100.39,17.67v8.17H97.57V7.57h3.9c2.78,0,4.42,1.11,4.42,4.4v.7c0,2.8-1.15,3.52-1.86,3.81,1.07.5,1.68,1.27,1.68,3.74a49.38,49.38,0,0,0,.17,5.62h-2.72a38.23,38.23,0,0,1-.2-5.43c0-2.23-.28-2.74-1.92-2.74Zm0-2.33H101c1.49,0,2-.56,2-2.55v-.62c0-1.41-.29-2.27-1.89-2.27h-.79Z"/><path class="cls-1" d="M120.35,17.49h-4v5.76H121l-.36,2.59h-7.08V7.57h7v2.61h-4.24V14.9h4Z"/><path class="cls-1" d="M136,20.37v.72c0,2.09-.35,5-4.21,5-3.39,0-4.1-2.11-4.1-4.9V12c0-2.82,1.27-4.69,4.14-4.69,3.43,0,4.08,2.27,4.08,4.8v.82h-2.82V11.77c0-1.21-.28-1.9-1.26-1.9s-1.28.66-1.28,1.91v9.66c0,1.19.24,2.12,1.31,2.12s1.29-.8,1.29-2.16v-1Z"/><path class="cls-1" d="M143.24,7.57h2.81v7.21h3V7.57h2.81V25.84h-2.81V17.37h-3v8.47h-2.81Z"/><path class="cls-1" d="M161.64,10.18h-2.93V7.57h8.7v2.61h-2.95V25.84h-2.82Z"/><path class="cls-1" d="M73.46,45.59c0-3.1,0-7,.09-9.06h0c-.42,3.17-1.43,10.57-2.22,15.86H68.65c-.59-4.75-1.61-12.54-2-15.89h-.05c.05,2.13.14,6.27.14,9.41v6.48H64.15V34.12h4.2C69.06,38.76,69.79,44,70,46.53h0c.29-2.59,1.28-8,2-12.41h4V52.39H73.46Z"/><path class="cls-1" d="M84.22,47.5l-.64,4.89H80.72l2.94-18.27h4l3,18.27H87.75L87,47.5Zm2.48-2.59c-.42-3.1-.82-6-1-8.11h-.1c-.08,1.5-.63,5.41-1,8.11Z"/><path class="cls-1" d="M98.17,44.22v8.17H95.35V34.12h3.91c2.77,0,4.42,1.11,4.42,4.4v.7c0,2.8-1.16,3.52-1.86,3.81,1.06.5,1.67,1.27,1.67,3.74a49.38,49.38,0,0,0,.17,5.62h-2.72a38.28,38.28,0,0,1-.19-5.43c0-2.23-.29-2.74-1.93-2.74Zm0-2.33h.65c1.49,0,2-.56,2-2.55v-.62c0-1.41-.3-2.27-1.89-2.27h-.8Z"/><path class="cls-1" d="M109.08,34.12h2.77v8.25h0c.7-1.8,2.26-5.74,3.27-8.25h3.13L115,41.22l3.52,11.17h-3.07L113,44.16l-1.18,2.46v5.77h-2.77Z"/><path class="cls-1" d="M129.59,44h-4V49.8h4.63l-.36,2.59h-7.08V34.12h7v2.62h-4.24v4.71h4Z"/><path class="cls-1" d="M137.17,36.74h-2.93V34.12h8.69v2.62h-3V52.39h-2.81Z"/><path class="cls-1" d="M150.32,34.12V52.39H147.5V34.12Z"/><path class="cls-1" d="M156.11,52.39V34.12h3.26c.73,2.58,2.91,11.59,3.1,12.56h0c-.13-2.24-.14-4.81-.14-7.82V34.12H165V52.39h-3.14c-.58-2.19-3-12.2-3.19-13h0c.14,2.21.13,4.69.13,8v5Z"/><path class="cls-1" d="M179,52.39h-2.2a11.26,11.26,0,0,1-.15-1.37,2.72,2.72,0,0,1-2.75,1.63c-2.68,0-3.55-1.94-3.55-5V39c0-3,1.16-5.18,4.34-5.18,3.83,0,4.24,2.82,4.24,4.78v.6h-2.82V38.5c0-1-.14-2.08-1.43-2.08-1,0-1.46.71-1.46,2.17v9.34c0,1.47.42,2.23,1.44,2.23,1.22,0,1.52-1,1.52-2.9V44.59h-1.6V42.17H179Z"/><path class="cls-2" d="M43.69,51.22l-7.54-.81c-.14,0-.15-.34,0-.36,5.57-1,2.58-6.68,2.37-7.06Z"/><path class="cls-3" d="M57.35,52.7,43.69,51.22,38.51,43v0h0L28.36,26.83l-14,22.26a4.61,4.61,0,0,1-3.19,2.35L1.34,52.67c-.29,0-.45-.52-.25-.85L22.58,17.64l6.1-9.7a.68.68,0,0,1,1.26,0l27.64,44C57.77,52.2,57.62,52.73,57.35,52.7Z"/></svg>